<svg version="1.1" xmlns="http://www.w3.org/2000/svg" xmlns:xlink="http://www.w3.org/1999/xlink" viewBox="0 0 172 172"><g fill="none" fill-rule="nonzero" stroke="none" stroke-width="1" stroke-linecap="butt" stroke-linejoin="miter" stroke-miterlimit="10" stroke-dasharray="" stroke-dashoffset="0" font-family="none" font-weight="none" font-size="none" text-anchor="none" style="mix-blend-mode: normal"><path d="M0,172v-172h172v172z" fill="none"></path><g id="Layer_1"><path d="M105.48438,22.84375h23.51563c7.39063,0 13.4375,6.04688 13.4375,13.4375v110.1875c0,7.39063 -6.04687,13.4375 -13.4375,13.4375h-86c-7.39062,0 -13.4375,-6.04687 -13.4375,-13.4375v-110.1875c0,-7.39062 6.04688,-13.4375 13.4375,-13.4375h8.73438" fill="#ffffff"></path><path d="M129,163.9375h-86c-9.675,0 -17.46875,-7.79375 -17.46875,-17.46875v-110.1875c0,-9.675 7.79375,-17.46875 17.46875,-17.46875h8.73438c2.28438,0 4.03125,1.74687 4.03125,4.03125c0,2.28438 -1.74687,4.03125 -4.03125,4.03125h-8.73437c-5.24063,0 -9.40625,4.16563 -9.40625,9.40625v110.1875c0,5.24062 4.16562,9.40625 9.40625,9.40625h86c5.24062,0 9.40625,-4.16563 9.40625,-9.40625v-110.1875c0,-5.24062 -4.16563,-9.40625 -9.40625,-9.40625h-23.51562c-2.28437,0 -4.03125,-1.74687 -4.03125,-4.03125c0,-2.28438 1.74688,-4.03125 4.03125,-4.03125h23.51563c9.675,0 17.46875,7.79375 17.46875,17.46875v110.1875c0,9.675 -7.79375,17.46875 -17.46875,17.46875z" fill="#444b54"></path><path d="M96.75,31.57813h-21.5c-5.24062,0 -9.40625,-4.16563 -9.40625,-9.40625v0c0,-5.24063 4.16563,-9.40625 9.40625,-9.40625h21.5c5.24063,0 9.40625,4.16562 9.40625,9.40625v0c0,5.24062 -4.16562,9.40625 -9.40625,9.40625z" fill="#ffffff"></path><path d="M96.75,35.60938h-21.5c-7.39062,0 -13.4375,-6.04687 -13.4375,-13.4375c0,-7.39062 6.04688,-13.4375 13.4375,-13.4375h21.5c7.39063,0 13.4375,6.04688 13.4375,13.4375c0,7.39063 -6.04687,13.4375 -13.4375,13.4375zM75.25,16.79688c-2.95625,0 -5.375,2.41875 -5.375,5.375c0,2.95625 2.41875,5.375 5.375,5.375h21.5c2.95625,0 5.375,-2.41875 5.375,-5.375c0,-2.95625 -2.41875,-5.375 -5.375,-5.375z" fill="#444b54"></path></g></g></svg>