<?xml version="1.0" encoding="UTF-8" standalone="no"?>
<svg
   xmlns:dc="http://purl.org/dc/elements/1.1/"
   xmlns:cc="http://creativecommons.org/ns#"
   xmlns:rdf="http://www.w3.org/1999/02/22-rdf-syntax-ns#"
   xmlns:svg="http://www.w3.org/2000/svg"
   xmlns="http://www.w3.org/2000/svg"
   xmlns:sodipodi="http://sodipodi.sourceforge.net/DTD/sodipodi-0.dtd"
   xmlns:inkscape="http://www.inkscape.org/namespaces/inkscape"
   version="1.1"
   viewBox="0 0 128 128"
   id="svg64"
   sodipodi:docname="icon.svg"
   width="128"
   height="128"
   inkscape:version="0.92.4 (5da689c313, 2019-01-14)"
   inkscape:export-filename="/home/yurii/ChromeExtesions/YoutubeClipboard/img/icon.png"
   inkscape:export-xdpi="96"
   inkscape:export-ydpi="96">
  <metadata
     id="metadata70">
    <rdf:RDF>
      <cc:Work
         rdf:about="">
        <dc:format>image/svg+xml</dc:format>
        <dc:type
           rdf:resource="http://purl.org/dc/dcmitype/StillImage" />
        <dc:title />
      </cc:Work>
    </rdf:RDF>
  </metadata>
  <defs
     id="defs68">
    <radialGradient
       id="QwP9WonCCC4o10jj5O3OBa"
       cx="33.127998"
       cy="25.511"
       r="32.462002"
       gradientTransform="matrix(1.0937222,0,0,-1.4035087,29.00353,115.01753)"
       gradientUnits="userSpaceOnUse">
      <stop
         offset="0"
         stop-color="#afeeff"
         id="stop2" />
      <stop
         offset=".193"
         stop-color="#bbf1ff"
         id="stop4" />
      <stop
         offset=".703"
         stop-color="#d7f8ff"
         id="stop6" />
      <stop
         offset="1"
         stop-color="#e1faff"
         id="stop8" />
    </radialGradient>
    <linearGradient
       id="QwP9WonCCC4o10jj5O3OBb"
       x1="32.188"
       x2="32.188"
       y1="67.765999"
       y2="40.373001"
       gradientTransform="matrix(1.0999718,0,0,-1.1082251,28.803547,100.84848)"
       gradientUnits="userSpaceOnUse">
      <stop
         offset=".122"
         stop-color="#5e6d7b"
         id="stop13" />
      <stop
         offset=".191"
         stop-color="#5d6b79"
         id="stop15" />
      <stop
         offset="1"
         stop-color="#515c69"
         id="stop17" />
    </linearGradient>
    <linearGradient
       id="QwP9WonCCC4o10jj5O3OBc"
       x1="32.000999"
       x2="32.000999"
       y1="7"
       y2="46.438"
       gradientTransform="matrix(1.0999718,0,0,-1.1082251,28.803547,100.84848)"
       gradientUnits="userSpaceOnUse">
      <stop
         offset="0"
         stop-color="#ff5840"
         id="stop24" />
      <stop
         offset=".007"
         stop-color="#ff5840"
         id="stop26" />
      <stop
         offset=".989"
         stop-color="#fa528c"
         id="stop28" />
      <stop
         offset="1"
         stop-color="#fa528c"
         id="stop30" />
    </linearGradient>
  </defs>
  <sodipodi:namedview
     pagecolor="#ffffff"
     bordercolor="#666666"
     borderopacity="1"
     objecttolerance="10"
     gridtolerance="10"
     guidetolerance="10"
     inkscape:pageopacity="0"
     inkscape:pageshadow="2"
     inkscape:window-width="1366"
     inkscape:window-height="696"
     id="namedview66"
     showgrid="false"
     inkscape:pagecheckerboard="true"
     inkscape:zoom="1.9404325"
     inkscape:cx="0.10174692"
     inkscape:cy="80.092258"
     inkscape:window-x="0"
     inkscape:window-y="0"
     inkscape:window-maximized="1"
     inkscape:current-layer="svg64" />
  <path
     style="font-family:none;mix-blend-mode:normal;fill:none;fill-rule:nonzero;stroke:none;stroke-width:0.74418604;stroke-linecap:butt;stroke-linejoin:miter;stroke-miterlimit:10;stroke-dasharray:none;stroke-dashoffset:0"
     inkscape:connector-curvature="0"
     id="path51"
     d="M 0,128 V 0 h 128 v 128 z" />
  <g
     id="g885"
     transform="matrix(1.1111111,0,0,1.1130435,-7.1111109,-7.2347852)">
    <g
       transform="matrix(0.74418592,0,0,0.74096449,3.23e-6,0.02813392)"
       id="Layer_1"
       style="font-family:none;mix-blend-mode:normal;fill:none;fill-rule:nonzero;stroke:none;stroke-width:1;stroke-linecap:butt;stroke-linejoin:miter;stroke-miterlimit:10;stroke-dasharray:none;stroke-dashoffset:0">
      <path
         d="m 105.48438,22.84375 h 23.51563 c 7.39063,0 13.4375,6.04688 13.4375,13.4375 v 110.1875 c 0,7.39063 -6.04687,13.4375 -13.4375,13.4375 h -86 c -7.39062,0 -13.4375,-6.04687 -13.4375,-13.4375 V 36.28125 c 0,-7.39062 6.04688,-13.4375 13.4375,-13.4375 h 8.73438"
         id="path53"
         inkscape:connector-curvature="0"
         style="fill:#ffffff" />
      <path
         d="M 129,163.9375 H 43 c -9.675,0 -17.46875,-7.79375 -17.46875,-17.46875 V 36.28125 C 25.53125,26.60625 33.325,18.8125 43,18.8125 h 8.73438 c 2.28438,0 4.03125,1.74687 4.03125,4.03125 0,2.28438 -1.74687,4.03125 -4.03125,4.03125 h -8.73437 c -5.24063,0 -9.40625,4.16563 -9.40625,9.40625 v 110.1875 c 0,5.24062 4.16562,9.40625 9.40625,9.40625 h 86 c 5.24062,0 9.40625,-4.16563 9.40625,-9.40625 V 36.28125 c 0,-5.24062 -4.16563,-9.40625 -9.40625,-9.40625 h -23.51562 c -2.28437,0 -4.03125,-1.74687 -4.03125,-4.03125 0,-2.28438 1.74688,-4.03125 4.03125,-4.03125 h 23.51563 c 9.675,0 17.46875,7.79375 17.46875,17.46875 v 110.1875 c 0,9.675 -7.79375,17.46875 -17.46875,17.46875 z"
         id="path55"
         inkscape:connector-curvature="0"
         style="fill:#444b54" />
      <path
         d="m 96.75,31.57813 h -21.5 c -5.24062,0 -9.40625,-4.16563 -9.40625,-9.40625 v 0 c 0,-5.24063 4.16563,-9.40625 9.40625,-9.40625 h 21.5 c 5.24063,0 9.40625,4.16562 9.40625,9.40625 v 0 c 0,5.24062 -4.16562,9.40625 -9.40625,9.40625 z"
         id="path57"
         inkscape:connector-curvature="0"
         style="fill:#ffffff" />
      <path
         d="m 96.75,35.60938 h -21.5 c -7.39062,0 -13.4375,-6.04687 -13.4375,-13.4375 0,-7.39062 6.04688,-13.4375 13.4375,-13.4375 h 21.5 c 7.39063,0 13.4375,6.04688 13.4375,13.4375 0,7.39063 -6.04687,13.4375 -13.4375,13.4375 z m -21.5,-18.8125 c -2.95625,0 -5.375,2.41875 -5.375,5.375 0,2.95625 2.41875,5.375 5.375,5.375 h 21.5 c 2.95625,0 5.375,-2.41875 5.375,-5.375 0,-2.95625 -2.41875,-5.375 -5.375,-5.375 z"
         id="path59"
         inkscape:connector-curvature="0"
         style="fill:#444b54" />
    </g>
    <path
       style="fill:url(#QwP9WonCCC4o10jj5O3OBa);stroke-width:1.23897076"
       inkscape:connector-curvature="0"
       id="path11"
       d="m 85.909895,74.792981 c 0.174995,1.375438 1.181219,2.329825 2.274942,2.329825 h 4.80144 c 2.87649,0 5.19518,3.199999 4.899876,6.961402 -0.262493,3.284211 -2.55931,5.670176 -5.129558,5.670176 h -4.692068 c -1.33434,0 -2.384313,1.515789 -2.154632,3.284211 0.174995,1.375438 1.181219,2.329823 2.274942,2.329823 h 3.707718 c 1.356216,0 2.592122,0.701755 3.478037,1.852631 0.896852,1.136851 1.443713,2.722811 1.443713,4.463171 0,3.49472 -2.198382,6.31578 -4.92175,6.31578 H 35.019002 c -1.662458,0 -3.171794,-0.87017 -4.254579,-2.25965 -1.082785,-1.38947 -1.760893,-3.32632 -1.760893,-5.45965 0,-4.266666 2.690557,-7.719299 6.015472,-7.719299 h 11.484083 c 0.907789,0 1.728081,-0.477193 2.318691,-1.235087 0.59061,-0.757896 0.962475,-1.810526 0.962475,-2.975438 0,-2.329825 -1.465587,-4.210528 -3.281166,-4.210528 H 33.92528 c -2.87649,0 -5.195181,-3.199999 -4.899876,-6.961402 0.262494,-3.284211 2.55931,-5.670175 5.129557,-5.670175 h 16.723012 c 1.870266,0 3.379602,-2.007017 3.281167,-4.435088 -0.09844,-2.273684 -1.69527,-3.985965 -3.467099,-3.985965 H 33.92528 c -2.87649,0 -5.195181,-3.199999 -4.899876,-6.961403 0.262494,-3.284209 2.570247,-5.670174 5.129557,-5.670174 h 7.426374 c 0.754668,0 1.443713,-0.392983 1.935888,-1.024563 0.492175,-0.631579 0.798417,-1.515788 0.798417,-2.48421 0,-1.936842 -1.224968,-3.508771 -2.734305,-3.508771 h -4.374888 c -1.662459,0 -3.171795,-0.870176 -4.25458,-2.25965 -1.082785,-1.389474 -1.760892,-3.326314 -1.760892,-5.45965 C 31.190975,31.452632 33.881531,28 37.206447,28 h 53.592386 c 3.510848,0 6.343588,3.91579 5.98266,8.505264 -0.317179,4.014033 -2.034323,6.933333 -5.173305,6.933333 h -1.903077 c -2.723369,0 -4.92175,2.821051 -4.92175,6.315788 0,1.740351 0.546861,3.326317 1.443714,4.463159 0.885914,1.150877 2.12182,1.85263 3.478036,1.85263 h 3.281166 c 3.510849,0 6.343589,3.915789 5.982661,8.505264 -0.31718,4.014034 -3.128045,6.933333 -6.267028,6.933333 h -4.637383 c -1.33434,0 -2.384313,1.51579 -2.154632,3.28421 z" />
    <path
       style="fill:#ffffff;stroke-width:1.10409069"
       inkscape:connector-curvature="0"
       id="path22"
       d="m 87.515642,67.072 c 0,-3.749126 -3.082121,-6.786771 -6.878124,-6.786771 -5.420661,-0.229402 -10.971119,-0.324709 -16.634873,-0.316952 -5.660455,-0.0078 -11.210913,0.08977 -16.634874,0.316952 -3.792703,0 -6.874824,3.038754 -6.874824,6.786771 -0.225494,2.964502 -0.329991,5.932329 -0.322291,8.90348 -0.0077,2.966719 0.0957,5.933438 0.324491,8.901264 0,3.753559 3.078821,6.792312 6.873724,6.792312 5.423961,0.223862 10.974419,0.320277 16.634874,0.31252 5.662654,0.0133 11.214212,-0.08977 16.634873,-0.31252 3.796003,0 6.878124,-3.038753 6.878124,-6.792312 0.225494,-2.967826 0.332191,-5.935653 0.318992,-8.901264 0.0121,-2.971151 -0.0946,-5.93787 -0.320092,-8.90348 z" />
    <g
       transform="matrix(1.2648643,0,0,1.2258287,-16.955805,-11.113322)"
       id="g869">
      <path
         d="m 49.016629,34.354979 h 1.260567 c 0.498288,0 0.933877,0.3369 1.062573,0.822303 l 2.115246,7.975896 h 0.226594 l 2.016249,-7.958165 C 55.822154,34.70407 56.261043,34.36052 56.76373,34.36052 h 1.283667 c 0.747981,0 1.278168,0.736969 1.044973,1.453991 L 55.378866,47.65368 v 8.003601 c 0,0.611741 -0.492788,1.108226 -1.099972,1.108226 H 52.88193 c -0.607185,0 -1.099972,-0.496485 -1.099972,-1.108226 V 47.635948 L 47.970556,35.805645 c -0.230994,-0.715913 0.299192,-1.450666 1.046073,-1.450666 z m 10.382634,9.480865 c 0,-1.25451 0.432289,-2.258562 1.292466,-2.999965 0.857978,-0.745836 2.012949,-1.120416 3.464912,-1.120416 1.324366,0 2.405638,0.392312 3.249316,1.18026 0.842579,0.781299 1.264968,1.794217 1.264968,3.032104 v 8.380398 c 0,1.38639 -0.41249,2.477992 -1.239668,3.271481 -0.827179,0.791272 -1.96125,1.185801 -3.417613,1.185801 -1.401364,0 -2.514535,-0.414477 -3.361514,-1.227914 -0.839278,-0.813437 -1.256167,-1.911688 -1.256167,-3.289212 v -8.413645 h 0.0033 c 0,0 0,0.0011 0,0.0011 z m 3.286715,8.716191 c 0,0.439965 0.112197,0.791272 0.348691,1.033974 0.224395,0.240485 0.547786,0.361281 0.972375,0.361281 0.434489,0 0.773281,-0.123013 1.028474,-0.37458 0.254094,-0.241593 0.38499,-0.586251 0.38499,-1.021783 v -8.839204 c 0,-0.352415 -0.134196,-0.638338 -0.39379,-0.857766 -0.257393,-0.216104 -0.599484,-0.328035 -1.019674,-0.328035 -0.39049,0 -0.710581,0.111931 -0.954775,0.328035 -0.243094,0.219428 -0.366291,0.505351 -0.366291,0.857766 z M 80.502222,41.233732 v 14.423549 c 0,0.611741 -0.492788,1.108226 -1.099972,1.108226 h -0.993275 c -0.607184,0 -1.099972,-0.496485 -1.099972,-1.108226 v -0.622822 c -0.677582,0.506459 -1.200069,0.869957 -1.840252,1.21129 -0.633584,0.344658 -1.251768,0.519758 -1.849053,0.519758 -0.740281,0 -1.294667,-0.238269 -1.670857,-0.723671 -0.37619,-0.479862 -0.559886,-1.202425 -0.559886,-2.172122 V 41.233732 c 0,-0.61174 0.492788,-1.108225 1.099972,-1.108225 h 0.991075 c 0.607184,0 1.099971,0.496485 1.099971,1.108225 v 11.515567 c 0,0.377905 0.0682,0.656069 0.204595,0.831169 0.127597,0.166233 0.351991,0.259324 0.646784,0.259324 0.239793,0 0.536786,-0.114147 0.888777,-0.344658 0.362991,-0.226078 0.691882,-0.518649 0.988874,-0.871065 V 41.233732 c 0,-0.61174 0.492788,-1.108225 1.099972,-1.108225 h 0.993275 c 0.607184,0 1.099972,0.496485 1.099972,1.108225 z"
         id="path20"
         inkscape:connector-curvature="0"
         style="fill:url(#QwP9WonCCC4o10jj5O3OBb);stroke-width:1.10409069" />
      <path
         d="m 88.963205,67.22161 c 0,-3.88987 -3.280116,-7.04277 -7.308213,-7.04277 -5.756152,-0.241593 -11.639902,-0.344658 -17.652347,-0.333576 -6.012446,-0.01108 -11.896195,0.09198 -17.652348,0.333576 -4.028097,0 -7.296113,3.1529 -7.296113,7.04277 -0.245294,3.084191 -0.349791,6.167273 -0.349791,9.251464 0,3.072 0.104497,6.15619 0.349791,9.24038 0,3.900953 3.269116,7.053853 7.296113,7.053853 5.756153,0.230511 11.639902,0.334684 17.652348,0.322494 6.012445,0.01108 11.896195,-0.09198 17.652347,-0.322494 4.028097,0 7.308213,-3.1529 7.308213,-7.053853 0.233194,-3.08419 0.349791,-6.167272 0.338791,-9.24038 0.011,-3.084191 -0.105597,-6.167273 -0.338791,-9.251464 z"
         id="path33"
         inkscape:connector-curvature="0"
         style="fill:url(#QwP9WonCCC4o10jj5O3OBc);stroke-width:1.10409069" />
      <path
         d="m 82.801163,80.911515 c -0.978975,0 -1.781955,0.753593 -1.858953,1.717749 -0.011,0.02216 -0.011,0.05541 0,0.08866 -0.011,0.02216 -0.011,0.04433 -0.011,0.06649 v 0.155152 c -0.044,0.653853 -0.142997,0.897662 -0.208995,0.975238 -0.120997,0.166234 -0.37399,0.254892 -0.747981,0.254892 -0.472988,0 -0.626984,-0.177316 -0.714982,-0.310303 -0.109997,-0.177316 -0.241993,-0.576277 -0.241993,-1.529351 v -2.604329 h 5.312863 c 0.186996,0 0.329992,-0.132987 0.340992,-0.321385 h -0.011 V 75.4258 c 0,-1.551515 -0.39599,-2.770563 -1.16597,-3.612814 -0.79198,-0.853333 -1.924951,-1.296623 -3.365914,-1.296623 -1.407964,0 -2.595933,0.476536 -3.475911,1.385281 -0.901977,0.908745 -1.352965,2.083463 -1.352965,3.524156 v 6.9929 c 0,1.562598 0.417989,2.814892 1.220969,3.745801 0.824979,0.919827 1.957949,1.385281 3.376913,1.385281 1.57296,0 2.771929,-0.44329 3.574908,-1.307705 0.692983,-0.78684 1.099972,-1.895065 1.165971,-3.302511 l 0.011,-0.354632 c -0.088,-0.941991 -0.879977,-1.67342 -1.847952,-1.673419 z M 79.01836,75.400312 c 0,-0.722563 0.123196,-1.056139 0.236494,-1.200208 0.146296,-0.199481 0.38169,-0.289247 0.741381,-0.289247 0.337691,0 0.573085,0.08977 0.708381,0.278165 0.112198,0.166233 0.247494,0.499809 0.247494,1.21129 v 1.244536 h -1.93265 z"
         id="path35"
         inkscape:connector-curvature="0"
         style="fill:#ffffff;stroke-width:1.10409069" />
      <path
         d="m 60.560833,70.920866 c -1.002074,0 -1.814954,0.818978 -1.814954,1.828571 v 10.187914 c -0.224394,0.267082 -0.482887,0.499809 -0.77548,0.689316 -0.348691,0.233835 -0.538986,0.265974 -0.629184,0.265974 -0.247493,0 -0.314592,-0.07758 -0.325591,-0.110823 -0.0451,-0.05541 -0.123197,-0.221645 -0.123197,-0.61174 v -9.556225 -0.865524 c 0,-1.009593 -0.812879,-1.828571 -1.814954,-1.828571 v 0 c -1.002074,0 -1.814953,0.818978 -1.814953,1.828571 v 0.865524 10.63342 c 0,0.989645 0.202395,1.767619 0.595085,2.27851 0.404789,0.556329 1.010874,0.833386 1.809453,0.833386 0.618184,0 1.236369,-0.178425 1.887552,-0.533057 0.40479,-0.233835 0.797479,-0.533056 1.191269,-0.900987 v 0.0044 c 0,0.89323 0.719382,1.618009 1.605959,1.618009 h 0.417989 c 0.886578,0 1.605959,-0.724779 1.605959,-1.618009 V 72.749437 c 0,-1.009593 -0.812879,-1.828571 -1.814953,-1.828571 z"
         id="path37"
         inkscape:connector-curvature="0"
         style="fill:#ffffff;stroke-width:1.10409069" />
      <path
         d="m 52.143849,65.385281 h -3.54081 -3.662906 c -1.014174,0 -1.836953,0.828953 -1.836953,1.850736 v 0.01108 c 0,1.021783 0.822779,1.850735 1.836953,1.850735 h 1.601559 v 15.1982 0.836709 c 0,1.107117 0.890977,2.005888 1.990949,2.005888 v 0 c 1.098872,0 1.989849,-0.897662 1.990949,-2.004779 l 0.0077,-16.034909 h 1.612559 c 1.014174,0 1.836953,-0.828953 1.836953,-1.850736 v -0.01219 c 0,-1.021783 -0.821679,-1.850736 -1.836953,-1.850736 z"
         id="path39"
         inkscape:connector-curvature="0"
         style="fill:#ffffff;stroke-width:1.10409069" />
      <path
         d="m 73.737395,74.960346 c 0,-1.340952 -0.274993,-2.382684 -0.802979,-3.10303 -0.549986,-0.753593 -1.363965,-1.141472 -2.408939,-1.141472 -0.505987,0 -1.022973,0.132987 -1.517961,0.421126 -0.274993,0.144069 -0.527986,0.332467 -0.78098,0.54303 v -4.455065 c 0,-1.016242 -0.817279,-1.839654 -1.825953,-1.839654 v 0 c -1.008674,0 -1.825953,0.823412 -1.825953,1.839654 v 19.327446 c 0.055,0.554112 0.505987,0.997402 1.088972,0.997402 h 1.462963 c 0.615984,0 1.099971,-0.498701 1.099971,-1.108225 v -0.243809 c 0.197995,0.310303 0.505987,0.631688 0.78098,0.764675 0.505987,0.24381 1.077973,0.365714 1.693957,0.365714 0.978975,0 1.737955,-0.332467 2.265942,-0.997402 0.516987,-0.653853 0.78098,-1.57368 0.78098,-2.748398 z m -3.706905,8.211948 c 0,0.509784 -0.099,0.742511 -0.197995,0.864416 -0.033,0.04433 -0.142996,0.188398 -0.527986,0.188398 -0.186996,0 -0.373991,-0.03325 -0.560986,-0.121905 -0.153996,-0.07757 -0.329991,-0.210562 -0.505987,-0.387878 v -9.442078 c 0.142996,-0.132987 0.274993,-0.24381 0.417989,-0.310303 0.483988,-0.232728 0.912977,-0.121905 1.121972,0.166233 0.175995,0.210563 0.252993,0.565195 0.252993,1.008485 0,0 0,8.034632 0,8.034632 z"
         id="path41"
         inkscape:connector-curvature="0"
         style="fill:#ffffff;stroke-width:1.10409069" />
    </g>
  </g>
</svg>
